<?xml version="1.0" encoding="UTF-8"?>
<svg xmlns="http://www.w3.org/2000/svg" viewBox="0 0 1600 1200" role="img" aria-labelledby="title desc">
  <title id="title">Bookstore Canvas Tote</title>
  <desc id="desc">Illustrated catalog artwork for Bookstore Canvas Tote</desc>
  <defs>
    <linearGradient id="bgGradient" x1="0%" y1="0%" x2="100%" y2="100%">
      <stop offset="0%" stop-color="#78350f" />
      <stop offset="55%" stop-color="#f59e0b" />
      <stop offset="100%" stop-color="#fef3c7" />
    </linearGradient>
    <linearGradient id="objectGradient" x1="0%" y1="0%" x2="100%" y2="100%">
      <stop offset="0%" stop-color="rgba(120, 53, 15, 0.96)" />
      <stop offset="100%" stop-color="rgba(245, 158, 11, 0.88)" />
    </linearGradient>
    <radialGradient id="glowA" cx="20%" cy="15%" r="70%">
      <stop offset="0%" stop-color="rgba(255,255,255,0.38)" />
      <stop offset="100%" stop-color="rgba(255,255,255,0)" />
    </radialGradient>
    <radialGradient id="glowB" cx="85%" cy="18%" r="60%">
      <stop offset="0%" stop-color="rgba(254, 243, 199, 0.36)" />
      <stop offset="100%" stop-color="rgba(255,255,255,0)" />
    </radialGradient>
  </defs>
  <rect width="1600" height="1200" fill="url(#bgGradient)" />
  <rect width="1600" height="1200" fill="url(#glowA)" />
  <rect width="1600" height="1200" fill="url(#glowB)" />
  <rect x="60" y="60" width="1480" height="1080" rx="48" fill="rgba(255,255,255,0.04)" stroke="rgba(255,255,255,0.12)" stroke-width="2" />
  
    <g opacity="0.18" stroke="rgba(254, 243, 199, 0.4)" stroke-width="12" stroke-linecap="round" fill="none">
      <path d="M100 900 C280 760, 420 760, 620 900" />
      <path d="M520 180 C720 40, 960 40, 1180 220" />
      <path d="M980 960 C1130 840, 1300 860, 1460 1000" />
    </g>
  
    <g transform="translate(110 92)">
      <rect width="188" height="50" rx="25" fill="rgba(120, 53, 15, 0.42)" />
      <text x="22" y="33" fill="#ffffff" font-size="22" font-family="Arial, sans-serif" font-weight="700" letter-spacing="1.4">REUSABLE</text>
    </g>
  
    <g transform="translate(1180 92)">
      <rect width="140" height="50" rx="25" fill="rgba(15, 23, 42, 0.22)" />
      <text x="22" y="33" fill="#ffffff" font-size="22" font-family="Arial, sans-serif" font-weight="700" letter-spacing="1.4">BAG</text>
    </g>
  
    <g transform="translate(450 220)">
      <ellipse cx="330" cy="560" rx="250" ry="40" fill="rgba(15,23,42,0.20)" />
      <path d="M170 220 H490 L450 620 H210 Z" fill="rgba(255,255,255,0.92)" />
      <path d="M170 220 H490 L450 620 H210 Z" fill="url(#objectGradient)" opacity="0.96" />
      <path d="M230 224 C230 136 302 88 330 88 C358 88 430 136 430 224" stroke="rgba(255,255,255,0.9)" stroke-width="16" fill="none" stroke-linecap="round" />
      <rect x="248" y="320" width="164" height="154" rx="28" fill="rgba(255,255,255,0.16)" />
      <path d="M280 382 H380" stroke="rgba(255,255,255,0.38)" stroke-width="14" stroke-linecap="round" />
    </g>
  
    <g transform="translate(110 960)">
      <rect width="540" height="150" rx="32" fill="rgba(255,255,255,0.16)" stroke="rgba(255,255,255,0.28)" stroke-width="3" />
      <text x="34" y="58" fill="rgba(255,255,255,0.72)" font-size="22" font-family="Arial, sans-serif" font-weight="700" letter-spacing="3">MCNEESE GEAR</text>
      <text x="34" y="110" fill="#ffffff" font-size="54" font-family="Arial, sans-serif" font-weight="800">Canvas</text>
      <text x="34" y="138" fill="#fef3c7" font-size="24" font-family="Arial, sans-serif" font-weight="700" letter-spacing="1.6">BOOKSTORE TOTE</text>
    </g>
</svg>