<?xml version="1.0" encoding="UTF-8"?>
<svg xmlns="http://www.w3.org/2000/svg" viewBox="0 0 1600 1200" role="img" aria-labelledby="title desc">
  <title id="title">14-inch Laptop Sleeve</title>
  <desc id="desc">Illustrated catalog artwork for 14-inch Laptop Sleeve</desc>
  <defs>
    <linearGradient id="bgGradient" x1="0%" y1="0%" x2="100%" y2="100%">
      <stop offset="0%" stop-color="#1f2937" />
      <stop offset="55%" stop-color="#3b82f6" />
      <stop offset="100%" stop-color="#dbeafe" />
    </linearGradient>
    <linearGradient id="objectGradient" x1="0%" y1="0%" x2="100%" y2="100%">
      <stop offset="0%" stop-color="rgba(31, 41, 55, 0.96)" />
      <stop offset="100%" stop-color="rgba(59, 130, 246, 0.88)" />
    </linearGradient>
    <radialGradient id="glowA" cx="20%" cy="15%" r="70%">
      <stop offset="0%" stop-color="rgba(255,255,255,0.38)" />
      <stop offset="100%" stop-color="rgba(255,255,255,0)" />
    </radialGradient>
    <radialGradient id="glowB" cx="85%" cy="18%" r="60%">
      <stop offset="0%" stop-color="rgba(219, 234, 254, 0.36)" />
      <stop offset="100%" stop-color="rgba(255,255,255,0)" />
    </radialGradient>
  </defs>
  <rect width="1600" height="1200" fill="url(#bgGradient)" />
  <rect width="1600" height="1200" fill="url(#glowA)" />
  <rect width="1600" height="1200" fill="url(#glowB)" />
  <rect x="60" y="60" width="1480" height="1080" rx="48" fill="rgba(255,255,255,0.04)" stroke="rgba(255,255,255,0.12)" stroke-width="2" />
  
      <g opacity="0.18" stroke="rgba(219, 234, 254, 0.4)" stroke-width="10" stroke-linecap="round" stroke-linejoin="round" fill="none">
        <path d="M160 230 H360 V430 H560" />
        <path d="M1040 220 H1320 V380 H1160" />
        <path d="M260 930 H520 V760 H780" />
        <path d="M980 980 H1290 V800 H1120" />
        <circle cx="360" cy="430" r="18" fill="rgba(219, 234, 254, 0.4)" stroke="none" />
        <circle cx="560" cy="430" r="18" fill="rgba(219, 234, 254, 0.4)" stroke="none" />
        <circle cx="1160" cy="380" r="18" fill="rgba(219, 234, 254, 0.4)" stroke="none" />
        <circle cx="780" cy="760" r="18" fill="rgba(219, 234, 254, 0.4)" stroke="none" />
      </g>
  
    <g transform="translate(110 92)">
      <rect width="242" height="50" rx="25" fill="rgba(31, 41, 55, 0.42)" />
      <text x="22" y="33" fill="#ffffff" font-size="22" font-family="Arial, sans-serif" font-weight="700" letter-spacing="1.4">NEW ARRIVAL</text>
    </g>
  
    <g transform="translate(1114 92)">
      <rect width="206" height="50" rx="25" fill="rgba(15, 23, 42, 0.22)" />
      <text x="22" y="33" fill="#ffffff" font-size="22" font-family="Arial, sans-serif" font-weight="700" letter-spacing="1.4">ACCESSORY</text>
    </g>
  
    <g transform="translate(420 250)">
      <ellipse cx="360" cy="510" rx="260" ry="42" fill="rgba(15,23,42,0.20)" />
      <g transform="rotate(-7 360 270)">
        <rect x="150" y="130" width="430" height="280" rx="46" fill="rgba(255,255,255,0.88)" />
        <rect x="130" y="154" width="430" height="280" rx="46" fill="url(#objectGradient)" />
        <rect x="190" y="192" width="312" height="172" rx="26" fill="rgba(255,255,255,0.14)" stroke="rgba(255,255,255,0.24)" stroke-width="5" />
        <path d="M210 222 H450" stroke="rgba(255,255,255,0.34)" stroke-width="12" stroke-linecap="round" />
      </g>
      <g transform="translate(46 36)">
        <rect x="260" y="64" width="320" height="220" rx="24" fill="rgba(255,255,255,0.82)" />
        <rect x="286" y="88" width="268" height="154" rx="18" fill="rgba(31, 41, 55, 0.3)" />
      </g>
    </g>
  
    <g transform="translate(110 960)">
      <rect width="540" height="150" rx="32" fill="rgba(255,255,255,0.16)" stroke="rgba(255,255,255,0.28)" stroke-width="3" />
      <text x="34" y="58" fill="rgba(255,255,255,0.72)" font-size="22" font-family="Arial, sans-serif" font-weight="700" letter-spacing="3">TECH ACCESSORIES</text>
      <text x="34" y="110" fill="#ffffff" font-size="54" font-family="Arial, sans-serif" font-weight="800">14 Inch</text>
      <text x="34" y="138" fill="#dbeafe" font-size="24" font-family="Arial, sans-serif" font-weight="700" letter-spacing="1.6">LAPTOP SLEEVE</text>
    </g>
</svg>