<?xml version="1.0" encoding="UTF-8"?>
<svg xmlns="http://www.w3.org/2000/svg" viewBox="0 0 1600 1200" role="img" aria-labelledby="title desc">
  <title id="title">Pastel Highlighter Set</title>
  <desc id="desc">Illustrated catalog artwork for Pastel Highlighter Set</desc>
  <defs>
    <linearGradient id="bgGradient" x1="0%" y1="0%" x2="100%" y2="100%">
      <stop offset="0%" stop-color="#ec4899" />
      <stop offset="55%" stop-color="#f9a8d4" />
      <stop offset="100%" stop-color="#fce7f3" />
    </linearGradient>
    <linearGradient id="objectGradient" x1="0%" y1="0%" x2="100%" y2="100%">
      <stop offset="0%" stop-color="rgba(236, 72, 153, 0.96)" />
      <stop offset="100%" stop-color="rgba(249, 168, 212, 0.88)" />
    </linearGradient>
    <radialGradient id="glowA" cx="20%" cy="15%" r="70%">
      <stop offset="0%" stop-color="rgba(255,255,255,0.38)" />
      <stop offset="100%" stop-color="rgba(255,255,255,0)" />
    </radialGradient>
    <radialGradient id="glowB" cx="85%" cy="18%" r="60%">
      <stop offset="0%" stop-color="rgba(252, 231, 243, 0.36)" />
      <stop offset="100%" stop-color="rgba(255,255,255,0)" />
    </radialGradient>
  </defs>
  <rect width="1600" height="1200" fill="url(#bgGradient)" />
  <rect width="1600" height="1200" fill="url(#glowA)" />
  <rect width="1600" height="1200" fill="url(#glowB)" />
  <rect x="60" y="60" width="1480" height="1080" rx="48" fill="rgba(255,255,255,0.04)" stroke="rgba(255,255,255,0.12)" stroke-width="2" />
  
      <g opacity="0.18" fill="rgba(252, 231, 243, 0.35)">
        <circle cx="170" cy="180" r="10" /><circle cx="340" cy="180" r="10" /><circle cx="510" cy="180" r="10" /><circle cx="680" cy="180" r="10" /><circle cx="850" cy="180" r="10" /><circle cx="1020" cy="180" r="10" /><circle cx="1190" cy="180" r="10" /><circle cx="1360" cy="180" r="10" /><circle cx="170" cy="330" r="10" /><circle cx="340" cy="330" r="10" /><circle cx="510" cy="330" r="10" /><circle cx="680" cy="330" r="10" /><circle cx="850" cy="330" r="10" /><circle cx="1020" cy="330" r="10" /><circle cx="1190" cy="330" r="10" /><circle cx="1360" cy="330" r="10" /><circle cx="170" cy="480" r="10" /><circle cx="340" cy="480" r="10" /><circle cx="510" cy="480" r="10" /><circle cx="680" cy="480" r="10" /><circle cx="850" cy="480" r="10" /><circle cx="1020" cy="480" r="10" /><circle cx="1190" cy="480" r="10" /><circle cx="1360" cy="480" r="10" /><circle cx="170" cy="630" r="10" /><circle cx="340" cy="630" r="10" /><circle cx="510" cy="630" r="10" /><circle cx="680" cy="630" r="10" /><circle cx="850" cy="630" r="10" /><circle cx="1020" cy="630" r="10" /><circle cx="1190" cy="630" r="10" /><circle cx="1360" cy="630" r="10" /><circle cx="170" cy="780" r="10" /><circle cx="340" cy="780" r="10" /><circle cx="510" cy="780" r="10" /><circle cx="680" cy="780" r="10" /><circle cx="850" cy="780" r="10" /><circle cx="1020" cy="780" r="10" /><circle cx="1190" cy="780" r="10" /><circle cx="1360" cy="780" r="10" /><circle cx="170" cy="930" r="10" /><circle cx="340" cy="930" r="10" /><circle cx="510" cy="930" r="10" /><circle cx="680" cy="930" r="10" /><circle cx="850" cy="930" r="10" /><circle cx="1020" cy="930" r="10" /><circle cx="1190" cy="930" r="10" /><circle cx="1360" cy="930" r="10" />
      </g>
  
    <g transform="translate(110 92)">
      <rect width="260" height="50" rx="25" fill="rgba(236, 72, 153, 0.42)" />
      <text x="22" y="33" fill="#ffffff" font-size="22" font-family="Arial, sans-serif" font-weight="700" letter-spacing="1.4">STUDENT PICK</text>
    </g>
  
    <g transform="translate(1168 92)">
      <rect width="152" height="50" rx="25" fill="rgba(15, 23, 42, 0.22)" />
      <text x="22" y="33" fill="#ffffff" font-size="22" font-family="Arial, sans-serif" font-weight="700" letter-spacing="1.4">6-PACK</text>
    </g>
  
    <g transform="translate(360 240)">
      <ellipse cx="430" cy="560" rx="300" ry="42" fill="rgba(15,23,42,0.20)" />
      
        <g transform="translate(200 170) rotate(-6 90 230)">
          <rect x="40" y="110" width="120" height="280" rx="30" fill="rgba(255,255,255,0.9)" />
          <rect x="40" y="110" width="120" height="280" rx="30" fill="rgba(255,255,255,0.56)" />
          <rect x="40" y="330" width="120" height="60" rx="16" fill="rgba(255,255,255,0.48)" />
          <rect x="70" y="68" width="60" height="60" rx="12" fill="rgba(15,23,42,0.22)" />
        </g>
        <g transform="translate(320 150) rotate(6 90 230)">
          <rect x="40" y="110" width="120" height="280" rx="30" fill="rgba(255,255,255,0.9)" />
          <rect x="40" y="110" width="120" height="280" rx="30" fill="rgba(255,255,255,0.72)" />
          <rect x="40" y="330" width="120" height="60" rx="16" fill="rgba(255,255,255,0.48)" />
          <rect x="70" y="68" width="60" height="60" rx="12" fill="rgba(15,23,42,0.22)" />
        </g>
        <g transform="translate(440 178) rotate(-6 90 230)">
          <rect x="40" y="110" width="120" height="280" rx="30" fill="rgba(255,255,255,0.9)" />
          <rect x="40" y="110" width="120" height="280" rx="30" fill="url(#objectGradient)" />
          <rect x="40" y="330" width="120" height="60" rx="16" fill="rgba(255,255,255,0.48)" />
          <rect x="70" y="68" width="60" height="60" rx="12" fill="rgba(15,23,42,0.22)" />
        </g>
    </g>
  
    <g transform="translate(110 960)">
      <rect width="540" height="150" rx="32" fill="rgba(255,255,255,0.16)" stroke="rgba(255,255,255,0.28)" stroke-width="3" />
      <text x="34" y="58" fill="rgba(255,255,255,0.72)" font-size="22" font-family="Arial, sans-serif" font-weight="700" letter-spacing="3">OFFICE SUPPLIES</text>
      <text x="34" y="110" fill="#ffffff" font-size="54" font-family="Arial, sans-serif" font-weight="800">Pastel</text>
      <text x="34" y="138" fill="#fce7f3" font-size="24" font-family="Arial, sans-serif" font-weight="700" letter-spacing="1.6">HIGHLIGHTERS</text>
    </g>
</svg>