<?xml version="1.0" encoding="UTF-8"?>
<svg xmlns="http://www.w3.org/2000/svg" viewBox="0 0 1600 1200" role="img" aria-labelledby="title desc">
  <title id="title">HD Study Webcam</title>
  <desc id="desc">Illustrated catalog artwork for HD Study Webcam</desc>
  <defs>
    <linearGradient id="bgGradient" x1="0%" y1="0%" x2="100%" y2="100%">
      <stop offset="0%" stop-color="#1e293b" />
      <stop offset="55%" stop-color="#6366f1" />
      <stop offset="100%" stop-color="#c7d2fe" />
    </linearGradient>
    <linearGradient id="objectGradient" x1="0%" y1="0%" x2="100%" y2="100%">
      <stop offset="0%" stop-color="rgba(30, 41, 59, 0.96)" />
      <stop offset="100%" stop-color="rgba(99, 102, 241, 0.88)" />
    </linearGradient>
    <radialGradient id="glowA" cx="20%" cy="15%" r="70%">
      <stop offset="0%" stop-color="rgba(255,255,255,0.38)" />
      <stop offset="100%" stop-color="rgba(255,255,255,0)" />
    </radialGradient>
    <radialGradient id="glowB" cx="85%" cy="18%" r="60%">
      <stop offset="0%" stop-color="rgba(199, 210, 254, 0.36)" />
      <stop offset="100%" stop-color="rgba(255,255,255,0)" />
    </radialGradient>
  </defs>
  <rect width="1600" height="1200" fill="url(#bgGradient)" />
  <rect width="1600" height="1200" fill="url(#glowA)" />
  <rect width="1600" height="1200" fill="url(#glowB)" />
  <rect x="60" y="60" width="1480" height="1080" rx="48" fill="rgba(255,255,255,0.04)" stroke="rgba(255,255,255,0.12)" stroke-width="2" />
  
      <g opacity="0.18" stroke="rgba(199, 210, 254, 0.4)" stroke-width="10" stroke-linecap="round" stroke-linejoin="round" fill="none">
        <path d="M160 230 H360 V430 H560" />
        <path d="M1040 220 H1320 V380 H1160" />
        <path d="M260 930 H520 V760 H780" />
        <path d="M980 980 H1290 V800 H1120" />
        <circle cx="360" cy="430" r="18" fill="rgba(199, 210, 254, 0.4)" stroke="none" />
        <circle cx="560" cy="430" r="18" fill="rgba(199, 210, 254, 0.4)" stroke="none" />
        <circle cx="1160" cy="380" r="18" fill="rgba(199, 210, 254, 0.4)" stroke="none" />
        <circle cx="780" cy="760" r="18" fill="rgba(199, 210, 254, 0.4)" stroke="none" />
      </g>
  
    <g transform="translate(110 92)">
      <rect width="260" height="50" rx="25" fill="rgba(30, 41, 59, 0.42)" />
      <text x="22" y="33" fill="#ffffff" font-size="22" font-family="Arial, sans-serif" font-weight="700" letter-spacing="1.4">HYBRID READY</text>
    </g>
  
    <g transform="translate(1168 92)">
      <rect width="152" height="50" rx="25" fill="rgba(15, 23, 42, 0.22)" />
      <text x="22" y="33" fill="#ffffff" font-size="22" font-family="Arial, sans-serif" font-weight="700" letter-spacing="1.4">WEBCAM</text>
    </g>
  
    <g transform="translate(440 210)">
      <ellipse cx="350" cy="590" rx="250" ry="40" fill="rgba(15,23,42,0.20)" />
      <rect x="170" y="140" width="360" height="240" rx="56" fill="rgba(255,255,255,0.92)" />
      <rect x="170" y="140" width="360" height="240" rx="56" fill="url(#objectGradient)" opacity="0.96" />
      <circle cx="350" cy="260" r="84" fill="rgba(15,23,42,0.26)" />
      <circle cx="350" cy="260" r="52" fill="rgba(199, 210, 254, 0.78)" />
      <circle cx="350" cy="260" r="22" fill="rgba(255,255,255,0.68)" />
      <rect x="320" y="380" width="60" height="120" rx="18" fill="rgba(255,255,255,0.82)" />
      <rect x="240" y="490" width="220" height="36" rx="18" fill="rgba(30, 41, 59, 0.9)" />
    </g>
  
    <g transform="translate(110 960)">
      <rect width="540" height="150" rx="32" fill="rgba(255,255,255,0.16)" stroke="rgba(255,255,255,0.28)" stroke-width="3" />
      <text x="34" y="58" fill="rgba(255,255,255,0.72)" font-size="22" font-family="Arial, sans-serif" font-weight="700" letter-spacing="3">TECH ACCESSORIES</text>
      <text x="34" y="110" fill="#ffffff" font-size="54" font-family="Arial, sans-serif" font-weight="800">HD</text>
      <text x="34" y="138" fill="#c7d2fe" font-size="24" font-family="Arial, sans-serif" font-weight="700" letter-spacing="1.6">STUDY WEBCAM</text>
    </g>
</svg>